<?xml version="1.0" standalone="no"?>
<!DOCTYPE svg PUBLIC "-//W3C//DTD SVG 20010904//EN"
 "http://www.w3.org/TR/2001/REC-SVG-20010904/DTD/svg10.dtd">
<svg version="1.0" xmlns="http://www.w3.org/2000/svg"
 width="1280.000000pt" height="640.000000pt" viewBox="0 0 1280.000000 640.000000"
 preserveAspectRatio="xMidYMid meet">
<metadata>
Created by potrace 1.15, written by Peter Selinger 2001-2017
</metadata>
<g transform="translate(0.000000,640.000000) scale(0.100000,-0.100000)"
fill="#000000" stroke="none">
<path d="M406 6133 c-3 -4 -1 -12 5 -20 9 -10 8 -13 0 -13 -7 0 -23 -11 -36
-25 -38 -38 -35 -114 8 -185 31 -52 54 -68 632 -449 l600 -396 115 -29 c63
-16 118 -32 123 -36 4 -3 1 -27 -7 -53 -15 -52 -15 -52 32 -62 36 -8 36 -8 20
-70 -10 -38 -10 -48 1 -55 8 -5 12 -17 8 -30 -6 -25 4 -30 117 -56 l77 -18
-58 -29 c-70 -36 -171 -135 -202 -200 -89 -185 -61 -380 76 -527 60 -65 161
-123 243 -139 25 -5 72 -16 105 -25 165 -45 336 4 454 129 149 157 169 382 51
569 -24 38 -27 46 -13 42 41 -12 182 -46 191 -46 5 0 13 12 16 26 4 16 12 24
20 21 10 -4 18 10 28 46 14 49 17 52 44 49 27 -2 31 1 42 43 6 25 17 45 22 45
12 0 264 -67 2550 -680 311 -83 747 -200 970 -260 223 -60 441 -118 485 -130
84 -23 738 -198 1475 -395 239 -64 439 -120 443 -124 4 -4 3 -20 -3 -35 -13
-35 -8 -42 35 -50 40 -8 39 -6 20 -69 -13 -43 -13 -49 1 -54 11 -4 14 -14 10
-33 -5 -27 -3 -28 58 -44 34 -8 74 -21 88 -29 l26 -13 -52 -27 c-95 -50 -178
-148 -220 -259 -13 -33 -25 -55 -28 -48 -2 7 -28 16 -58 21 -30 5 -129 20
-220 35 -91 14 -262 40 -380 59 -1993 312 -3277 471 -4700 579 -968 74 -1764
105 -1950 75 -36 -5 -78 -12 -95 -15 -146 -23 -286 -136 -285 -231 1 -86 95
-184 252 -261 331 -163 1770 -551 3248 -876 1168 -257 2414 -503 3650 -721
113 -20 266 -47 340 -60 306 -55 744 -125 870 -139 257 -30 535 -17 780 35
329 71 733 207 955 322 135 71 243 175 269 260 45 144 -53 280 -277 385 -181
86 -628 215 -1072 311 -104 23 -202 45 -217 50 -20 7 -28 6 -29 -2 -1 -7 -5
18 -9 55 -11 91 -33 155 -80 228 l-40 60 28 -6 c15 -4 41 -12 57 -19 17 -8 54
-20 83 -28 46 -13 54 -13 58 -1 2 8 6 21 9 29 2 8 11 12 19 9 10 -4 16 5 21
28 15 69 22 79 49 68 23 -8 26 -6 39 33 8 23 18 41 23 40 5 -1 57 -14 115 -29
l105 -28 155 42 c157 43 241 62 760 177 451 99 653 163 699 222 14 19 18 35
14 76 -3 28 -12 62 -20 74 l-14 23 -308 -6 -307 -6 -507 -79 -507 -79 -218 59
c-331 90 -984 268 -1403 381 -681 184 -743 201 -960 260 -118 32 -384 104
-590 160 -206 55 -422 114 -480 130 -58 16 -274 74 -480 130 -206 56 -422 114
-480 130 -58 16 -274 74 -480 130 -206 56 -422 114 -480 130 -58 16 -274 74
-480 130 -206 56 -422 114 -480 130 -58 16 -323 88 -590 160 -267 72 -532 144
-590 160 -58 16 -274 74 -480 130 -206 55 -415 112 -464 126 -70 20 -223 94
-725 353 -572 296 -695 353 -715 334z"/>
</g>
</svg>
